<?xml version="1.0" encoding="UTF-8"?>
<!DOCTYPE svg PUBLIC "-//W3C//DTD SVG 1.1//EN" "http://www.w3.org/Graphics/SVG/1.1/DTD/svg11.dtd">
<svg xmlns="http://www.w3.org/2000/svg" version="1.1" width="949px" height="347px" style="shape-rendering:geometricPrecision; text-rendering:geometricPrecision; image-rendering:optimizeQuality; fill-rule:evenodd; clip-rule:evenodd" xmlns:xlink="http://www.w3.org/1999/xlink">
<g><path style="opacity:0.004" fill="#444745" d="M 137.5,74.5 C 138.833,75.1667 138.833,75.1667 137.5,74.5 Z"/></g>
<g><path style="opacity:0.004" fill="#424243" d="M 152.5,74.5 C 153.833,75.1667 153.833,75.1667 152.5,74.5 Z"/></g>
<g><path style="opacity:0.004" fill="#444545" d="M 155.5,75.5 C 156.833,76.1667 156.833,76.1667 155.5,75.5 Z"/></g>
<g><path style="opacity:0.985" fill="#191919" d="M 152.5,75.5 C 153.833,76.5 155.167,77.5 156.5,78.5C 156.631,79.2389 156.464,79.9056 156,80.5C 149.719,76.8853 143.219,76.5519 136.5,79.5C 135.537,79.0302 135.537,78.3635 136.5,77.5C 141.438,74.4583 146.771,73.7916 152.5,75.5 Z"/></g>
<g><path style="opacity:0.998" fill="#242424" d="M 136.5,77.5 C 135.537,78.3635 135.537,79.0302 136.5,79.5C 143.219,76.5519 149.719,76.8853 156,80.5C 156.464,79.9056 156.631,79.2389 156.5,78.5C 158.153,78.6596 159.486,79.3263 160.5,80.5C 158.158,80.7748 158.158,81.6081 160.5,83C 168.5,87.6667 176.5,92.3333 184.5,97C 185.577,97.4696 186.577,97.3029 187.5,96.5C 188.492,96.3284 189.158,96.6618 189.5,97.5C 188.761,97.369 188.094,97.5357 187.5,98C 200.002,105.752 212.668,113.252 225.5,120.5C 226.107,120.376 226.44,120.043 226.5,119.5C 228.679,119.84 230.512,120.84 232,122.5C 234.092,122.929 236.092,124.262 238,126.5C 238.333,126.167 238.667,125.833 239,125.5C 239.662,126.984 240.496,128.317 241.5,129.5C 240.711,129.783 240.044,130.283 239.5,131C 240.863,132.945 241.697,135.112 242,137.5C 242.82,172.875 242.653,208.208 241.5,243.5C 240.371,246.918 238.371,249.751 235.5,252C 224.8,258.679 214.134,265.346 203.5,272C 204.094,272.464 204.761,272.631 205.5,272.5C 204.71,273.401 203.71,274.068 202.5,274.5C 200.911,273.379 199.244,273.546 197.5,275C 182.5,284.836 167.167,294.169 151.5,303C 147.833,303.667 144.167,303.667 140.5,303C 111.702,286.768 83.3686,269.768 55.5,252C 52.589,249.01 50.589,245.51 49.5,241.5C 49.3333,206.832 49.5,172.165 50,137.5C 50.3519,135.753 50.8519,134.086 51.5,132.5C 53.6411,129.528 56.3078,127.028 59.5,125C 83.6687,110.415 108.002,96.0812 132.5,82C 131.906,81.5357 131.239,81.369 130.5,81.5C 132.147,79.6736 134.147,78.3403 136.5,77.5 Z M 163.5,116.5 C 181.63,126.615 199.13,136.948 216,147.5C 216.72,149.112 216.554,150.612 215.5,152C 211.104,154.527 206.771,157.027 202.5,159.5C 200.973,159.427 199.973,160.094 199.5,161.5C 198.167,161.833 196.833,162.167 195.5,162.5C 192.432,164.951 189.099,165.118 185.5,163C 175.997,157.637 166.664,152.137 157.5,146.5C 152.198,142.921 146.531,142.088 140.5,144C 129.446,149.859 118.446,155.692 107.5,161.5C 107.167,162.5 106.5,163.167 105.5,163.5C 103.236,164.219 100.903,164.552 98.5,164.5C 91.7215,160.894 85.0548,157.061 78.5,153C 75.8333,150.667 75.8333,148.333 78.5,146C 83.8982,142.302 89.5648,139.136 95.5,136.5C 112.085,125.953 129.252,116.287 147,107.5C 152.915,109.872 158.415,112.872 163.5,116.5 Z M 218.5,190.5 C 217.472,193.886 215.472,196.552 212.5,198.5C 209.5,199.833 206.5,201.167 203.5,202.5C 199.167,205.669 194.5,208.336 189.5,210.5C 178.498,217.337 167.164,223.67 155.5,229.5C 152.113,232.669 148.28,234.335 144,234.5C 120.856,222.037 98.356,209.37 76.5,196.5C 75.4532,193.934 74.7865,191.267 74.5,188.5C 75.5973,185.638 75.5973,182.805 74.5,180C 75.0311,178.282 75.6977,178.115 76.5,179.5C 87.9978,185.079 98.9978,191.412 109.5,198.5C 118.274,203.056 126.94,207.889 135.5,213C 141.386,215.766 147.386,216.099 153.5,214C 166.059,206.556 178.726,199.39 191.5,192.5C 200.052,186.723 209.052,181.723 218.5,177.5C 218.5,181.833 218.5,186.167 218.5,190.5 Z M 217.5,219.5 C 217.833,219.5 218.167,219.5 218.5,219.5C 219.139,225.535 217.472,230.701 213.5,235C 208.925,237.758 204.258,240.258 199.5,242.5C 191.003,248.586 182.003,253.919 172.5,258.5C 165.398,263.226 158.064,267.726 150.5,272C 144.611,273.255 139.278,272.089 134.5,268.5C 134.5,268.167 134.5,267.833 134.5,267.5C 133.25,267.423 132.417,266.756 132,265.5C 131.601,265.728 131.435,266.062 131.5,266.5C 117.364,257.794 103.364,249.794 89.5,242.5C 89.0269,241.094 88.0269,240.427 86.5,240.5C 83.1515,238.066 79.6515,235.733 76,233.5C 75.6271,231.302 75.1271,229.135 74.5,227C 74.5912,225.186 74.9246,223.353 75.5,221.5C 96.1039,233.498 117.104,245.665 138.5,258C 143.921,258.839 149.254,258.506 154.5,257C 175.67,244.637 196.67,232.137 217.5,219.5 Z"/></g>
<g><path style="opacity:0.004" fill="#3f3f3f" d="M 165.5,82.5 C 166.167,81.1667 166.833,81.1667 167.5,82.5C 166.833,82.5 166.167,82.5 165.5,82.5 Z"/></g>
<g><path style="opacity:0.004" fill="#3d403f" d="M 167.5,82.5 C 168.833,83.1667 168.833,83.1667 167.5,82.5 Z"/></g>
<g><path style="opacity:0.008" fill="#414241" d="M 121.5,83.5 C 122.833,84.1667 122.833,84.1667 121.5,83.5 Z"/></g>
<g><path style="opacity:0.992" fill="#121212" d="M 130.5,81.5 C 131.239,81.369 131.906,81.5357 132.5,82C 108.002,96.0812 83.6687,110.415 59.5,125C 56.3078,127.028 53.6411,129.528 51.5,132.5C 51.6716,131.508 51.3382,130.842 50.5,130.5C 52.9056,127.09 55.9056,124.424 59.5,122.5C 73.1004,114.89 86.4337,106.89 99.5,98.5C 109.673,92.5794 120.006,86.9127 130.5,81.5 Z"/></g>
<g><path style="opacity:0.994" fill="#161616" d="M 160.5,80.5 C 162.167,81.1667 163.833,81.8333 165.5,82.5C 172.833,87.1667 180.167,91.8333 187.5,96.5C 186.577,97.3029 185.577,97.4696 184.5,97C 176.5,92.3333 168.5,87.6667 160.5,83C 158.158,81.6081 158.158,80.7748 160.5,80.5 Z"/></g>
<g><path style="opacity:0.008" fill="#3f3e3e" d="M 99.5,98.5 C 98.8333,97.1667 98.8333,97.1667 99.5,98.5 Z"/></g>
<g><path style="opacity:0.004" fill="#3e3e3e" d="M 192.5,98.5 C 192.897,97.475 193.563,97.3083 194.5,98C 193.906,98.4643 193.239,98.631 192.5,98.5 Z"/></g>
<g><path style="opacity:0.008" fill="#3f413f" d="M 90.5,101.5 C 91.8333,102.167 91.8333,102.167 90.5,101.5 Z"/></g>
<g><path style="opacity:0.004" fill="#434140" d="M 214.5,110.5 C 215.833,111.167 215.833,111.167 214.5,110.5 Z"/></g>
<g><path style="opacity:1" fill="#141414" d="M 189.5,97.5 C 190.391,98.1098 191.391,98.4431 192.5,98.5C 199.496,103.334 206.829,107.667 214.5,111.5C 218.5,114.167 222.5,116.833 226.5,119.5C 226.44,120.043 226.107,120.376 225.5,120.5C 212.668,113.252 200.002,105.752 187.5,98C 188.094,97.5357 188.761,97.369 189.5,97.5 Z"/></g>
<g><path style="opacity:0.008" fill="#403f40" d="M 59.5,122.5 C 58.8333,121.167 58.8333,121.167 59.5,122.5 Z"/></g>
<g><path style="opacity:0.006" fill="#3b3a3b" d="M 381.5,122.5 C 381.897,121.475 382.563,121.308 383.5,122C 382.906,122.464 382.239,122.631 381.5,122.5 Z"/></g>
<g><path style="opacity:0.982" fill="#161616" d="M 559.5,175.5 C 559.5,176.167 559.167,176.5 558.5,176.5C 557.514,158.91 557.181,141.243 557.5,123.5C 550.833,123.5 544.167,123.5 537.5,123.5C 537.5,166.833 537.5,210.167 537.5,253.5C 544.5,253.5 551.5,253.5 558.5,253.5C 558.5,233.833 558.5,214.167 558.5,194.5C 579.169,194.333 599.836,194.5 620.5,195C 621,195.5 621.5,196 622,196.5C 622.5,215.497 622.667,234.497 622.5,253.5C 629.167,254.167 635.833,254.833 642.5,255.5C 641.833,255.5 641.167,255.5 640.5,255.5C 639.833,255.5 639.167,255.5 638.5,255.5C 636.388,256.275 634.388,256.275 632.5,255.5C 629.5,255.5 626.5,255.5 623.5,255.5C 621.737,256.954 620.403,256.62 619.5,254.5C 620.828,235.662 620.828,216.662 619.5,197.5C 599.838,196.515 580.338,196.182 561,196.5C 560.5,197 560,197.5 559.5,198C 560.195,216.953 560.362,236.12 560,255.5C 552.229,255.792 544.562,255.792 537,255.5C 536.667,256.167 536.333,256.833 536,257.5C 534.978,255.298 534.478,252.965 534.5,250.5C 535.514,207.862 535.514,165.362 534.5,123C 538.826,121.86 543.326,121.36 548,121.5C 552.167,121.833 556.333,122.167 560.5,122.5C 560.063,140.087 559.73,157.754 559.5,175.5 Z"/></g>
<g><path style="opacity:0.986" fill="#191919" d="M 378.5,122.5 C 378.167,123.167 377.833,123.833 377.5,124.5C 375.565,123.85 373.565,123.517 371.5,123.5C 350.833,123.5 330.167,123.5 309.5,123.5C 308.833,166.5 308.167,209.5 307.5,252.5C 306.574,209.135 306.241,165.468 306.5,121.5C 330.545,121.186 354.545,121.52 378.5,122.5 Z"/></g>
<g><path style="opacity:0.008" fill="#3f3d3d" d="M 384.5,123.5 C 384.897,122.475 385.563,122.308 386.5,123C 385.906,123.464 385.239,123.631 384.5,123.5 Z"/></g>
<g><path style="opacity:0.004" fill="#40403f" d="M 561.5,122.5 C 562.833,123.167 562.833,123.167 561.5,122.5 Z"/></g>
<g><path style="opacity:0.027" fill="#444444" d="M 620.5,121.5 C 620.5,122.167 620.5,122.833 620.5,123.5C 619.35,124.85 618.683,124.684 618.5,123C 618.836,121.97 619.503,121.47 620.5,121.5 Z"/></g>
<g><path style="opacity:0.978" fill="#151515" d="M 378.5,122.5 C 380.435,123.15 382.435,123.483 384.5,123.5C 402.195,131.554 409.362,145.221 406,164.5C 404.181,170.145 401.348,175.145 397.5,179.5C 394.477,181.678 391.144,183.345 387.5,184.5C 386.761,184.631 386.094,184.464 385.5,184C 401.002,177.166 407.169,165.332 404,148.5C 400.422,134.757 391.588,126.757 377.5,124.5C 377.833,123.833 378.167,123.167 378.5,122.5 Z"/></g>
<g><path style="opacity:0.992" fill="#151415" d="M 673.5,116.5 C 687.69,117.909 692.523,125.575 688,139.5C 681.402,146.043 673.902,147.209 665.5,143C 657.402,130.801 660.068,121.967 673.5,116.5 Z"/></g>
<g><path style="opacity:0.987" fill="#141414" d="M 202.5,159.5 C 206.771,157.027 211.104,154.527 215.5,152C 216.554,150.612 216.72,149.112 216,147.5C 199.13,136.948 181.63,126.615 163.5,116.5C 158.415,112.872 152.915,109.872 147,107.5C 129.252,116.287 112.085,125.953 95.5,136.5C 89.5648,139.136 83.8982,142.302 78.5,146C 75.8333,148.333 75.8333,150.667 78.5,153C 85.0548,157.061 91.7215,160.894 98.5,164.5C 99.9516,165.302 101.618,165.802 103.5,166C 101.167,166.667 98.8333,166.667 96.5,166C 88.7989,161.822 81.4655,157.155 74.5,152C 73.394,150.118 73.394,148.284 74.5,146.5C 94.8333,134.333 115.167,122.167 135.5,110C 138.96,107.935 142.626,106.435 146.5,105.5C 151.044,106.77 155.377,108.603 159.5,111C 179.167,122.833 198.833,134.667 218.5,146.5C 219.788,149.428 219.121,151.928 216.5,154C 212.081,156.627 207.581,159.127 203,161.5C 202.536,160.906 202.369,160.239 202.5,159.5 Z"/></g>
<g><path style="opacity:0.987" fill="#141414" d="M 427.5,119.5 C 428.552,119.351 429.552,119.517 430.5,120C 423.93,123.655 421.763,129.155 424,136.5C 427.608,143.074 433.108,145.241 440.5,143C 449.143,137.403 450.476,130.403 444.5,122C 440.267,120.52 436.267,119.02 432.5,117.5C 442.543,116.354 448.543,120.854 450.5,131C 448.791,142.705 442.125,147.371 430.5,145C 423.095,142.031 419.928,136.531 421,128.5C 421.84,124.5 424.006,121.5 427.5,119.5 Z"/></g>
<g><path style="opacity:0.999" fill="#252526" d="M 670.5,119.5 C 683.652,117.825 689.152,123.492 687,136.5C 683.155,142.667 677.655,144.834 670.5,143C 663.926,139.392 661.759,133.892 664,126.5C 665.694,123.642 667.861,121.309 670.5,119.5 Z"/></g>
<g><path style="opacity:0.008" fill="#424443" d="M 48.5,129.5 C 49.8333,130.167 49.8333,130.167 48.5,129.5 Z"/></g>
<g><path style="opacity:0.008" fill="#3c3a39" d="M 400.5,129.5 C 401.833,130.167 401.833,130.167 400.5,129.5 Z"/></g>
<g><path style="opacity:0.004" fill="#3c393b" d="M 658.5,129.5 C 659.525,129.897 659.692,130.563 659,131.5C 658.536,130.906 658.369,130.239 658.5,129.5 Z"/></g>
<g><path style="opacity:0.991" fill="#121111" d="M 50.5,130.5 C 51.3382,130.842 51.6716,131.508 51.5,132.5C 50.8519,134.086 50.3519,135.753 50,137.5C 49.5,172.165 49.3333,206.832 49.5,241.5C 48.8333,241.833 48.1667,242.167 47.5,242.5C 47.5335,220.289 47.2001,198.623 46.5,177.5C 46.9018,166.436 46.9018,155.103 46.5,143.5C 46.9209,138.853 48.2542,134.519 50.5,130.5 Z"/></g>
<g><path style="opacity:0.004" fill="#373836" d="M 418.5,131.5 C 419.833,132.167 419.833,132.167 418.5,131.5 Z"/></g>
<g><path style="opacity:0.999" fill="#252525" d="M 432.5,117.5 C 436.267,119.02 440.267,120.52 444.5,122C 450.476,130.403 449.143,137.403 440.5,143C 433.108,145.241 427.608,143.074 424,136.5C 421.763,129.155 423.93,123.655 430.5,120C 429.552,119.517 428.552,119.351 427.5,119.5C 428.78,118.069 430.447,117.402 432.5,117.5 Z"/></g>
<g><path style="opacity:0.008" fill="#393939" d="M 419.5,134.5 C 420.833,135.167 420.833,135.167 419.5,134.5 Z"/></g>
<g><path style="opacity:0.952" fill="#0f0f0f" d="M 498.5,157.5 C 498.44,158.043 498.107,158.376 497.5,158.5C 496.503,151.197 496.169,143.863 496.5,136.5C 490.167,136.5 483.833,136.5 477.5,136.5C 477.666,143.841 477.5,151.174 477,158.5C 476.25,159.126 475.416,159.626 474.5,160C 469.845,160.499 465.179,160.666 460.5,160.5C 460.5,165.5 460.5,170.5 460.5,175.5C 465.179,175.334 469.845,175.501 474.5,176C 475.416,176.278 476.082,176.778 476.5,177.5C 476.667,197.169 476.5,216.836 476,236.5C 475.832,216.662 475.332,196.996 474.5,177.5C 469.167,177.5 463.833,177.5 458.5,177.5C 458.17,170.8 458.503,164.134 459.5,157.5C 463.056,157.22 466.723,157.554 470.5,158.5C 472.167,158.5 473.833,158.5 475.5,158.5C 475.5,150.5 475.5,142.5 475.5,134.5C 482.774,133.463 490.441,133.296 498.5,134C 498.594,141.683 498.594,149.516 498.5,157.5 Z"/></g>
<g><path style="opacity:0.979" fill="#060606" d="M 241.5,129.5 C 242.594,131.359 243.427,133.359 244,135.5C 244.826,171.571 244.659,207.571 243.5,243.5C 242.833,243.5 242.167,243.5 241.5,243.5C 242.653,208.208 242.82,172.875 242,137.5C 241.697,135.112 240.863,132.945 239.5,131C 240.044,130.283 240.711,129.783 241.5,129.5 Z"/></g>
<g><path style="opacity:0.012" fill="#3a3839" d="M 419.5,136.5 C 420.833,137.167 420.833,137.167 419.5,136.5 Z"/></g>
<g><path style="opacity:0.008" fill="#393b38" d="M 658.5,136.5 C 659.833,137.167 659.833,137.167 658.5,136.5 Z"/></g>
<g><path style="opacity:0.004" fill="#3a3a3b" d="M 403.5,137.5 C 404.833,138.167 404.833,138.167 403.5,137.5 Z"/></g>
<g><path style="opacity:0.993" fill="#050505" d="M 644.5,121.5 C 644.832,164.67 644.499,207.67 643.5,250.5C 643.5,208.167 643.5,165.833 643.5,123.5C 636.5,123.5 629.5,123.5 622.5,123.5C 622.667,141.17 622.5,158.836 622,176.5C 621.617,175.944 621.117,175.611 620.5,175.5C 620.5,158.167 620.5,140.833 620.5,123.5C 620.5,122.833 620.5,122.167 620.5,121.5C 628.397,121.394 636.397,121.394 644.5,121.5 Z"/></g>
<g><path style="opacity:0.004" fill="#383839" d="M 449.5,138.5 C 450.833,139.167 450.833,139.167 449.5,138.5 Z"/></g>
<g><path style="opacity:0.004" fill="#3a3838" d="M 448.5,140.5 C 449.833,141.167 449.833,141.167 448.5,140.5 Z"/></g>
<g><path style="opacity:0.149" fill="#3f3e40" d="M 475.5,134.5 C 475.5,142.5 475.5,150.5 475.5,158.5C 473.833,158.5 472.167,158.5 470.5,158.5C 471.568,157.566 472.901,157.232 474.5,157.5C 474.175,149.648 474.508,141.982 475.5,134.5 Z"/></g>
<g><path style="opacity:0.004" fill="#383b39" d="M 407.5,146.5 C 408.833,147.167 408.833,147.167 407.5,146.5 Z"/></g>
<g><path style="opacity:0.996" fill="#252525" d="M 558.5,176.5 C 559.263,177.268 560.263,177.768 561.5,178C 571.333,178.167 581.167,178.333 591,178.5C 601.19,178.499 611.023,177.832 620.5,176.5C 620.5,176.167 620.5,175.833 620.5,175.5C 621.117,175.611 621.617,175.944 622,176.5C 622.5,158.836 622.667,141.17 622.5,123.5C 629.5,123.5 636.5,123.5 643.5,123.5C 643.5,165.833 643.5,208.167 643.5,250.5C 643.5,251.5 643.5,252.5 643.5,253.5C 636.5,253.5 629.5,253.5 622.5,253.5C 622.667,234.497 622.5,215.497 622,196.5C 621.5,196 621,195.5 620.5,195C 599.836,194.5 579.169,194.333 558.5,194.5C 558.5,214.167 558.5,233.833 558.5,253.5C 551.5,253.5 544.5,253.5 537.5,253.5C 537.5,210.167 537.5,166.833 537.5,123.5C 544.167,123.5 550.833,123.5 557.5,123.5C 557.181,141.243 557.514,158.91 558.5,176.5 Z"/></g>
<g><path style="opacity:0.004" fill="#3a383a" d="M 618.5,143.5 C 619.525,143.897 619.692,144.563 619,145.5C 618.536,144.906 618.369,144.239 618.5,143.5 Z"/></g>
<g><path style="opacity:0.004" fill="#3b3b3b" d="M 618.5,138.5 C 619.573,139.251 619.74,140.251 619,141.5C 618.517,140.552 618.351,139.552 618.5,138.5 Z"/></g>
<g><path style="opacity:0.004" fill="#3f3e3e" d="M 618.5,131.5 C 619.622,133.288 619.789,135.288 619,137.5C 618.505,135.527 618.338,133.527 618.5,131.5 Z"/></g>
<g><path style="opacity:0.007" fill="#3b3a3c" d="M 618.5,125.5 C 619.598,126.601 619.765,127.934 619,129.5C 618.51,128.207 618.343,126.873 618.5,125.5 Z"/></g>
<g><path style="opacity:0.999" fill="#252425" d="M 498.5,157.5 C 499.167,157.5 499.5,157.833 499.5,158.5C 499.611,159.117 499.944,159.617 500.5,160C 507.158,160.5 513.825,160.666 520.5,160.5C 520.5,165.5 520.5,170.5 520.5,175.5C 512.757,174.87 505.424,175.537 498.5,177.5C 497.169,185.639 496.502,194.139 496.5,203C 496.667,211.5 496.833,220 497,228.5C 497.075,230.935 497.908,231.602 499.5,230.5C 503.215,233.517 507.549,234.851 512.5,234.5C 509.308,235.421 505.975,235.588 502.5,235C 505.309,236.122 508.309,236.622 511.5,236.5C 514.421,236.476 517.254,236.143 520,235.5C 520.499,241.491 520.666,247.491 520.5,253.5C 511.221,255.544 501.888,255.877 492.5,254.5C 484.957,252.793 480.124,248.126 478,240.5C 477.832,219.329 477.332,198.329 476.5,177.5C 476.082,176.778 475.416,176.278 474.5,176C 469.845,175.501 465.179,175.334 460.5,175.5C 460.5,170.5 460.5,165.5 460.5,160.5C 465.179,160.666 469.845,160.499 474.5,160C 475.416,159.626 476.25,159.126 477,158.5C 477.5,151.174 477.666,143.841 477.5,136.5C 483.833,136.5 490.167,136.5 496.5,136.5C 496.169,143.863 496.503,151.197 497.5,158.5C 498.107,158.376 498.44,158.043 498.5,157.5 Z"/></g>
<g><path style="opacity:0.008" fill="#3d3d3a" d="M 690.5,153.5 C 691.833,154.167 691.833,154.167 690.5,153.5 Z"/></g>
<g><path style="opacity:0.008" fill="#413f3e" d="M 842.5,154.5 C 842.897,153.475 843.563,153.308 844.5,154C 843.906,154.464 843.239,154.631 842.5,154.5 Z"/></g>
<g><path style="opacity:0.004" fill="#3f3d3d" d="M 848.5,154.5 C 848.897,153.475 849.563,153.308 850.5,154C 849.906,154.464 849.239,154.631 848.5,154.5 Z"/></g>
<g><path style="opacity:0.004" fill="#3c3a38" d="M 425.5,155.5 C 426.833,156.167 426.833,156.167 425.5,155.5 Z"/></g>
<g><path style="opacity:0.008" fill="#3a3b39" d="M 446.5,155.5 C 447.833,156.167 447.833,156.167 446.5,155.5 Z"/></g>
<g><path style="opacity:0.004" fill="#3f3f3c" d="M 697.5,155.5 C 698.833,156.167 698.833,156.167 697.5,155.5 Z"/></g>
<g><path style="opacity:0.008" fill="#414141" d="M 794.5,155.5 C 795.833,156.167 795.833,156.167 794.5,155.5 Z"/></g>
<g><path style="opacity:0.008" fill="#434140" d="M 826.5,156.5 C 827.833,157.167 827.833,157.167 826.5,156.5 Z"/></g>
<g><path style="opacity:0.026" fill="#424141" d="M 425.5,156.5 C 429.167,157.167 432.833,157.833 436.5,158.5C 432.5,158.5 428.5,158.5 424.5,158.5C 424.328,157.508 424.662,156.842 425.5,156.5 Z"/></g>
<g><path style="opacity:0.031" fill="#454443" d="M 721.5,158.5 C 712.766,157.865 704.433,158.532 696.5,160.5C 696.167,160.5 695.833,160.5 695.5,160.5C 695.5,159.5 695.5,158.5 695.5,157.5C 702.948,158.108 710.115,157.441 717,155.5C 718.31,156.897 719.81,157.897 721.5,158.5 Z"/></g>
<g><path style="opacity:0.025" fill="#474647" d="M 796.5,158.5 C 796.56,157.957 796.893,157.624 797.5,157.5C 798.773,158.257 798.773,158.923 797.5,159.5C 797.5,158.833 797.167,158.5 796.5,158.5 Z"/></g>
<g><path style="opacity:0.997" fill="#050506" d="M 447.5,158.5 C 447.5,190.833 447.5,223.167 447.5,255.5C 446.798,256.116 445.798,256.116 444.5,255.5C 438.5,255.5 432.5,255.5 426.5,255.5C 426.167,255.5 425.833,255.5 425.5,255.5C 424.502,223.338 424.168,191.004 424.5,158.5C 428.5,158.5 432.5,158.5 436.5,158.5C 440.414,157.797 444.081,157.797 447.5,158.5 Z"/></g>
<g><path style="opacity:0.027" fill="#383837" d="M 449.5,158.5 C 450.833,159.167 450.833,159.167 449.5,158.5 Z"/></g>
<g><path style="opacity:0.947" fill="#161616" d="M 498.5,177.5 C 505.424,175.537 512.757,174.87 520.5,175.5C 520.5,170.5 520.5,165.5 520.5,160.5C 513.825,160.666 507.158,160.5 500.5,160C 499.944,159.617 499.611,159.117 499.5,158.5C 507.08,157.534 514.747,157.201 522.5,157.5C 523.386,164.074 523.719,170.741 523.5,177.5C 515.167,177.5 506.833,177.5 498.5,177.5 Z"/></g>
<g><path style="opacity:0.985" fill="#171717" d="M 686.5,255.5 C 683.5,255.5 680.5,255.5 677.5,255.5C 674.407,256.529 671.241,256.529 668,255.5C 666.342,255.675 665.009,256.342 664,257.5C 663.626,256.584 663.126,255.75 662.5,255C 663.811,223.019 663.811,191.352 662.5,160C 662.645,159.228 662.978,158.561 663.5,158C 671.413,157.186 679.246,157.353 687,158.5C 687.831,191.003 687.664,223.336 686.5,255.5 Z"/></g>
<g><path style="opacity:0.012" fill="#393837" d="M 449.5,160.5 C 450.833,161.167 450.833,161.167 449.5,160.5 Z"/></g>
<g><path style="opacity:0.016" fill="#3a3b39" d="M 688.5,160.5 C 689.833,161.167 689.833,161.167 688.5,160.5 Z"/></g>
<g><path style="opacity:0.004" fill="#3a3b39" d="M 695.5,160.5 C 694.833,161.167 694.833,161.167 695.5,160.5 Z"/></g>
<g><path style="opacity:0.986" fill="#161616" d="M 859.5,157.5 C 859.53,158.497 859.03,159.164 858,159.5C 842.028,155.661 827.528,158.661 814.5,168.5C 813.893,168.376 813.56,168.043 813.5,167.5C 814.5,166.167 815.5,164.833 816.5,163.5C 830.014,155.748 844.347,153.748 859.5,157.5 Z"/></g>
<g><path style="opacity:0.006" fill="#3a393a" d="M 618.5,146.5 C 619.656,153.989 619.822,161.655 619,169.5C 618.5,161.841 618.334,154.174 618.5,146.5 Z"/></g>
<g><path style="opacity:0.004" fill="#3d3d3c" d="M 872.5,161.5 C 873.833,162.167 873.833,162.167 872.5,161.5 Z"/></g>
<g><path style="opacity:0.008" fill="#393838" d="M 407.5,162.5 C 408.833,163.167 408.833,163.167 407.5,162.5 Z"/></g>
<g><path style="opacity:0.004" fill="#3c3e3c" d="M 696.5,162.5 C 695.833,163.167 695.833,163.167 696.5,162.5 Z"/></g>
<g><path style="opacity:0.004" fill="#3f3f3e" d="M 816.5,163.5 C 815.833,162.167 815.833,162.167 816.5,163.5 Z"/></g>
<g><path style="opacity:0.004" fill="#3a3a39" d="M 660.5,164.5 C 661.833,165.167 661.833,165.167 660.5,164.5 Z"/></g>
<g><path style="opacity:1" fill="#141414" d="M 157.5,146.5 C 166.664,152.137 175.997,157.637 185.5,163C 189.099,165.118 192.432,164.951 195.5,162.5C 196.833,162.167 198.167,161.833 199.5,161.5C 200.239,161.369 200.906,161.536 201.5,162C 197.204,165.982 192.204,167.315 186.5,166C 175.5,159.667 164.5,153.333 153.5,147C 148.527,145.061 143.527,145.061 138.5,147C 127.468,153.181 116.468,159.347 105.5,165.5C 104.537,165.03 104.537,164.363 105.5,163.5C 106.5,163.167 107.167,162.5 107.5,161.5C 118.446,155.692 129.446,149.859 140.5,144C 146.531,142.088 152.198,142.921 157.5,146.5 Z"/></g>
<g><path style="opacity:0.004" fill="#393838" d="M 456.5,168.5 C 457.833,169.167 457.833,169.167 456.5,168.5 Z"/></g>
<g><path style="opacity:0.004" fill="#3a3b39" d="M 532.5,169.5 C 533.833,170.167 533.833,170.167 532.5,169.5 Z"/></g>
<g><path style="opacity:0.012" fill="#3f413e" d="M 881.5,169.5 C 882.833,170.167 882.833,170.167 881.5,169.5 Z"/></g>
<g><path style="opacity:0.998" fill="#242425" d="M 371.5,123.5 C 373.565,123.517 375.565,123.85 377.5,124.5C 391.588,126.757 400.422,134.757 404,148.5C 407.169,165.332 401.002,177.166 385.5,184C 386.094,184.464 386.761,184.631 387.5,184.5C 387.833,185.167 388.167,185.833 388.5,186.5C 387.761,186.369 387.094,186.536 386.5,187C 403.877,193.582 411.044,206.082 408,224.5C 406.308,236.051 400.142,244.218 389.5,249C 384.007,251.221 378.34,252.721 372.5,253.5C 372.631,252.761 372.464,252.094 372,251.5C 353.039,252.254 333.872,252.421 314.5,252C 313.747,250.513 312.914,250.346 312,251.5C 311.667,250.833 311.333,250.167 311,249.5C 310.709,207.54 310.542,165.873 310.5,124.5C 331.007,124.83 351.34,124.497 371.5,123.5 Z M 332.5,142.5 C 341.712,142.588 351.212,142.588 361,142.5C 377.464,143.442 383.631,151.775 379.5,167.5C 378.5,167.833 377.833,168.5 377.5,169.5C 374.96,172.607 371.627,174.44 367.5,175C 357.651,175.804 347.985,176.304 338.5,176.5C 336.735,175.539 334.735,175.205 332.5,175.5C 332.5,164.5 332.5,153.5 332.5,142.5 Z M 332.5,196.5 C 343.209,196.547 353.709,196.547 364,196.5C 381.116,199.28 387.116,208.947 382,225.5C 379.221,229.612 375.388,232.112 370.5,233C 357.925,233.177 345.425,233.677 333,234.5C 332.5,221.838 332.333,209.171 332.5,196.5 Z"/></g>
<g><path style="opacity:0.998" fill="#121212" d="M 379.5,167.5 C 383.631,151.775 377.464,143.442 361,142.5C 351.212,142.588 341.712,142.588 332.5,142.5C 331.505,153.654 331.172,164.988 331.5,176.5C 333.833,176.5 336.167,176.5 338.5,176.5C 347.985,176.304 357.651,175.804 367.5,175C 371.627,174.44 374.96,172.607 377.5,169.5C 378.573,170.251 378.74,171.251 378,172.5C 375.417,173.874 372.917,175.374 370.5,177C 357.49,178.679 344.49,178.845 331.5,177.5C 330.334,165.514 330.167,153.514 331,141.5C 342.424,140.346 353.924,140.18 365.5,141C 379.903,143.623 385.403,152.123 382,166.5C 381.085,167.328 380.419,168.328 380,169.5C 379.536,168.906 379.369,168.239 379.5,167.5 Z M 332.5,142.5 C 341.712,142.588 351.212,142.588 361,142.5C 377.464,143.442 383.631,151.775 379.5,167.5C 378.5,167.833 377.833,168.5 377.5,169.5C 374.96,172.607 371.627,174.44 367.5,175C 357.651,175.804 347.985,176.304 338.5,176.5C 336.735,175.539 334.735,175.205 332.5,175.5C 332.5,164.5 332.5,153.5 332.5,142.5 Z"/></g>
<g><path style="opacity:0.342" fill="#383838" d="M 332.5,142.5 C 332.5,153.5 332.5,164.5 332.5,175.5C 334.735,175.205 336.735,175.539 338.5,176.5C 336.167,176.5 333.833,176.5 331.5,176.5C 331.172,164.988 331.505,153.654 332.5,142.5 Z"/></g>
<g><path style="opacity:0.008" fill="#373736" d="M 449.5,171.5 C 450.833,172.167 450.833,172.167 449.5,171.5 Z"/></g>
<g><path style="opacity:0.004" fill="#383837" d="M 449.5,173.5 C 450.833,174.167 450.833,174.167 449.5,173.5 Z"/></g>
<g><path style="opacity:0.004" fill="#363737" d="M 421.5,174.5 C 422.833,175.167 422.833,175.167 421.5,174.5 Z"/></g>
<g><path style="opacity:0.012" fill="#393937" d="M 699.5,174.5 C 700.833,175.167 700.833,175.167 699.5,174.5 Z"/></g>
<g><path style="opacity:0.967" fill="#181818" d="M 559.5,175.5 C 579.478,175.582 599.812,175.915 620.5,176.5C 611.023,177.832 601.19,178.499 591,178.5C 581.167,178.333 571.333,178.167 561.5,178C 560.263,177.768 559.263,177.268 558.5,176.5C 559.167,176.5 559.5,176.167 559.5,175.5 Z"/></g>
<g><path style="opacity:0.004" fill="#403e3f" d="M 46.5,177.5 C 45.8333,178.167 45.8333,178.167 46.5,177.5 Z"/></g>
<g><path style="opacity:0.965" fill="#090a09" d="M 498.5,177.5 C 498.196,195.079 498.53,212.745 499.5,230.5C 497.908,231.602 497.075,230.935 497,228.5C 496.833,220 496.667,211.5 496.5,203C 496.502,194.139 497.169,185.639 498.5,177.5 Z"/></g>
<g><path style="opacity:0.004" fill="#3a3a38" d="M 700.5,177.5 C 701.833,178.167 701.833,178.167 700.5,177.5 Z"/></g>
<g><path style="opacity:0.008" fill="#3a3b3b" d="M 803.5,178.5 C 802.833,177.167 802.833,177.167 803.5,178.5 Z"/></g>
<g><path style="opacity:0.004" fill="#363938" d="M 397.5,179.5 C 398.833,180.167 398.833,180.167 397.5,179.5 Z"/></g>
<g><path style="opacity:0.004" fill="#363837" d="M 449.5,179.5 C 450.833,180.167 450.833,180.167 449.5,179.5 Z"/></g>
<g><path style="opacity:0.004" fill="#393a38" d="M 700.5,178.5 C 700.631,179.239 700.464,179.906 700,180.5C 699.308,179.563 699.475,178.897 700.5,178.5 Z"/></g>
<g><path style="opacity:0.004" fill="#383a38" d="M 701.5,179.5 C 702.833,180.167 702.833,180.167 701.5,179.5 Z"/></g>
<g><path style="opacity:0.008" fill="#363737" d="M 449.5,183.5 C 450.833,184.167 450.833,184.167 449.5,183.5 Z"/></g>
<g><path style="opacity:0.004" fill="#363635" d="M 704.5,183.5 C 703.833,184.167 703.833,184.167 704.5,183.5 Z"/></g>
<g><path style="opacity:0.99" fill="#151515" d="M 796.5,158.5 C 797.167,158.5 797.5,158.833 797.5,159.5C 787.028,187.583 776.362,215.583 765.5,243.5C 764.761,243.631 764.094,243.464 763.5,243C 774.134,215.598 784.467,188.098 794.5,160.5C 787.245,160.187 780.079,160.52 773,161.5C 764.533,185.426 756.366,209.426 748.5,233.5C 747.5,233.5 746.5,233.5 745.5,233.5C 737.976,209.263 729.643,185.263 720.5,161.5C 713.189,160.335 705.856,160.169 698.5,161C 710.718,190.981 722.551,221.147 734,251.5C 738.077,252.798 742.411,253.464 747,253.5C 751.167,253.167 755.333,252.833 759.5,252.5C 760.667,250.167 761.833,247.833 763,245.5C 763.464,246.094 763.631,246.761 763.5,247.5C 763.418,251.266 761.918,254.266 759,256.5C 758.329,255.748 757.496,255.414 756.5,255.5C 751.833,255.5 747.167,255.5 742.5,255.5C 740.453,255.511 738.453,255.844 736.5,256.5C 734.971,256.471 733.804,255.804 733,254.5C 730.1,246.612 726.934,238.945 723.5,231.5C 719.42,219.094 714.754,207.427 709.5,196.5C 708.404,191.868 706.737,187.534 704.5,183.5C 702.208,176.28 699.541,169.28 696.5,162.5C 696.5,161.833 696.5,161.167 696.5,160.5C 704.433,158.532 712.766,157.865 721.5,158.5C 728.167,176.167 734.833,193.833 741.5,211.5C 743.023,217.572 744.857,223.572 747,229.5C 755.466,205.935 763.633,182.268 771.5,158.5C 779.871,157.175 788.205,157.175 796.5,158.5 Z"/></g>
<g><path style="opacity:0.977" fill="#0d0d0e" d="M 862.5,158.5 C 866.063,159.282 869.397,160.616 872.5,162.5C 875.474,165.138 878.474,167.805 881.5,170.5C 890.93,183.735 894.596,198.069 892.5,213.5C 891.833,213.5 891.167,213.5 890.5,213.5C 867.833,213.5 845.167,213.5 822.5,213.5C 821.812,222.797 824.812,230.463 831.5,236.5C 832.969,238.105 832.635,238.605 830.5,238C 822.398,231.033 819.064,222.199 820.5,211.5C 843.833,211.5 867.167,211.5 890.5,211.5C 892.145,192.969 886.145,177.469 872.5,165C 868.29,163.377 864.29,161.377 860.5,159C 861.094,158.536 861.761,158.369 862.5,158.5 Z"/></g>
<g><path style="opacity:0.004" fill="#373835" d="M 394.5,184.5 C 395.833,185.167 395.833,185.167 394.5,184.5 Z"/></g>
<g><path style="opacity:0.004" fill="#404040" d="M 44.5,185.5 C 45.8333,186.167 45.8333,186.167 44.5,185.5 Z"/></g>
<g><path style="opacity:0.994" fill="#2a2a2b" d="M 309.5,123.5 C 330.167,123.5 350.833,123.5 371.5,123.5C 351.34,124.497 331.007,124.83 310.5,124.5C 310.542,165.873 310.709,207.54 311,249.5C 311.333,250.167 311.667,250.833 312,251.5C 312.914,250.346 313.747,250.513 314.5,252C 333.872,252.421 353.039,252.254 372,251.5C 372.464,252.094 372.631,252.761 372.5,253.5C 351.5,253.5 330.5,253.5 309.5,253.5C 309.5,210.167 309.5,166.833 309.5,123.5 Z"/></g>
<g><path style="opacity:0.29" fill="#363535" d="M 424.5,158.5 C 424.168,191.004 424.502,223.338 425.5,255.5C 425.607,257.379 425.107,257.712 424,256.5C 423.829,223.928 423.329,191.428 422.5,159C 423.094,158.536 423.761,158.369 424.5,158.5 Z"/></g>
<g><path style="opacity:0.004" fill="#373636" d="M 404.5,194.5 C 405.833,195.167 405.833,195.167 404.5,194.5 Z"/></g>
<g><path style="opacity:0.986" fill="#131313" d="M 810.5,169.5 C 811.239,169.369 811.906,169.536 812.5,170C 801.72,183.948 797.553,199.782 800,217.5C 802.38,239.877 814.547,253.377 836.5,258C 855.941,261.414 871.774,255.581 884,240.5C 886.226,236.482 888.059,232.315 889.5,228C 882.833,227.333 876.167,227.333 869.5,228C 863.195,240.149 853.195,244.815 839.5,242C 838.167,241.667 836.833,241.333 835.5,241C 834.748,240.329 834.414,239.496 834.5,238.5C 843.889,241.761 852.889,240.928 861.5,236C 864.629,233.08 866.296,229.746 866.5,226C 874.827,225.5 883.16,225.334 891.5,225.5C 889.187,238.466 882.52,248.466 871.5,255.5C 861.875,259.559 852.041,261.559 842,261.5C 813.005,256.998 797.838,239.998 796.5,210.5C 796.74,199.656 799.073,188.989 803.5,178.5C 805.58,175.358 807.914,172.358 810.5,169.5 Z"/></g>
<g><path style="opacity:0.012" fill="#383937" d="M 709.5,196.5 C 708.833,197.167 708.833,197.167 709.5,196.5 Z"/></g>
<g><path style="opacity:0.006" fill="#3a393b" d="M 795.5,197.5 C 796.525,197.897 796.692,198.563 796,199.5C 795.536,198.906 795.369,198.239 795.5,197.5 Z"/></g>
<g><path style="opacity:0.999" fill="#242425" d="M 859.5,157.5 C 860.791,157.263 861.791,157.596 862.5,158.5C 861.761,158.369 861.094,158.536 860.5,159C 864.29,161.377 868.29,163.377 872.5,165C 886.145,177.469 892.145,192.969 890.5,211.5C 867.167,211.5 843.833,211.5 820.5,211.5C 819.064,222.199 822.398,231.033 830.5,238C 832.635,238.605 832.969,238.105 831.5,236.5C 833.027,236.427 834.027,237.094 834.5,238.5C 834.414,239.496 834.748,240.329 835.5,241C 836.833,241.333 838.167,241.667 839.5,242C 853.195,244.815 863.195,240.149 869.5,228C 876.167,227.333 882.833,227.333 889.5,228C 888.059,232.315 886.226,236.482 884,240.5C 871.774,255.581 855.941,261.414 836.5,258C 814.547,253.377 802.38,239.877 800,217.5C 797.553,199.782 801.72,183.948 812.5,170C 811.906,169.536 811.239,169.369 810.5,169.5C 810.973,168.094 811.973,167.427 813.5,167.5C 813.56,168.043 813.893,168.376 814.5,168.5C 827.528,158.661 842.028,155.661 858,159.5C 859.03,159.164 859.53,158.497 859.5,157.5 Z M 862.5,183.5 C 865.393,185.748 867.06,188.748 867.5,192.5C 867.5,193.833 867.5,195.167 867.5,196.5C 853.425,195.983 838.759,195.983 823.5,196.5C 823.5,195.833 823.167,195.5 822.5,195.5C 826.761,178.463 837.261,172.13 854,176.5C 857.828,177.804 860.661,180.137 862.5,183.5 Z"/></g>
<g><path style="opacity:0.99" fill="#0b0b0b" d="M 867.5,196.5 C 868.043,196.56 868.376,196.893 868.5,197.5C 853.178,198.666 837.844,198.833 822.5,198C 821.288,196.893 821.621,196.393 823.5,196.5C 838.759,195.983 853.425,195.983 867.5,196.5 Z"/></g>
<g><path style="opacity:1" fill="#141414" d="M 867.5,192.5 C 867.06,188.748 865.393,185.748 862.5,183.5C 860.661,180.137 857.828,177.804 854,176.5C 837.261,172.13 826.761,178.463 822.5,195.5C 821.378,193.712 821.211,191.712 822,189.5C 829.669,173.603 841.836,169.103 858.5,176C 864.62,180.113 868.287,185.779 869.5,193C 869.333,193.833 869.167,194.667 869,195.5C 868.768,194.263 868.268,193.263 867.5,192.5 Z"/></g>
<g><path style="opacity:0.008" fill="#3d3e3d" d="M 561.5,198.5 C 562.833,199.167 562.833,199.167 561.5,198.5 Z"/></g>
<g><path style="opacity:0.999" fill="#242425" d="M 665.5,160.5 C 671.833,160.5 678.167,160.5 684.5,160.5C 684.5,191.5 684.5,222.5 684.5,253.5C 678.167,253.5 671.833,253.5 665.5,253.5C 665.5,222.5 665.5,191.5 665.5,160.5 Z"/></g>
<g><path style="opacity:0.016" fill="#393838" d="M 618.5,199.5 C 619.622,201.288 619.789,203.288 619,205.5C 618.505,203.527 618.338,201.527 618.5,199.5 Z"/></g>
<g><path style="opacity:0.004" fill="#383838" d="M 409.5,204.5 C 409.369,203.761 409.536,203.094 410,202.5C 410.692,203.437 410.525,204.103 409.5,204.5 Z"/></g>
<g><path style="opacity:0.008" fill="#373a37" d="M 618.5,207.5 C 619.525,207.897 619.692,208.563 619,209.5C 618.536,208.906 618.369,208.239 618.5,207.5 Z"/></g>
<g><path style="opacity:0.999" fill="#252425" d="M 765.5,243.5 C 765.34,245.153 764.674,246.486 763.5,247.5C 763.631,246.761 763.464,246.094 763,245.5C 761.833,247.833 760.667,250.167 759.5,252.5C 755.333,252.833 751.167,253.167 747,253.5C 742.411,253.464 738.077,252.798 734,251.5C 722.551,221.147 710.718,190.981 698.5,161C 705.856,160.169 713.189,160.335 720.5,161.5C 729.643,185.263 737.976,209.263 745.5,233.5C 746.5,233.5 747.5,233.5 748.5,233.5C 756.366,209.426 764.533,185.426 773,161.5C 780.079,160.52 787.245,160.187 794.5,160.5C 784.467,188.098 774.134,215.598 763.5,243C 764.094,243.464 764.761,243.631 765.5,243.5 Z"/></g>
<g><path style="opacity:0.004" fill="#373836" d="M 755.5,198.5 C 756.833,199.167 756.833,199.167 755.5,198.5 Z"/></g>
<g><path style="opacity:0.004" fill="#393837" d="M 756.5,195.5 C 757.833,196.167 757.833,196.167 756.5,195.5 Z"/></g>
<g><path style="opacity:0.004" fill="#3d3b3b" d="M 762.5,177.5 C 763.833,178.167 763.833,178.167 762.5,177.5 Z"/></g>
<g><path style="opacity:0.008" fill="#3b393a" d="M 618.5,210.5 C 619.573,211.251 619.74,212.251 619,213.5C 618.517,212.552 618.351,211.552 618.5,210.5 Z"/></g>
<g><path style="opacity:0.004" fill="#383837" d="M 741.5,210.5 C 742.833,211.167 742.833,211.167 741.5,210.5 Z"/></g>
<g><path style="opacity:0.006" fill="#4a494a" d="M 890.5,213.5 C 891.167,213.5 891.833,213.5 892.5,213.5C 892.214,215.933 891.548,215.933 890.5,213.5 Z"/></g>
<g><path style="opacity:0.004" fill="#383736" d="M 421.5,214.5 C 422.833,215.167 422.833,215.167 421.5,214.5 Z"/></g>
<g><path style="opacity:0.006" fill="#3a393a" d="M 618.5,214.5 C 619.598,215.601 619.765,216.934 619,218.5C 618.51,217.207 618.343,215.873 618.5,214.5 Z"/></g>
<g><path style="opacity:0.008" fill="#393937" d="M 827.5,214.5 C 828.833,215.167 828.833,215.167 827.5,214.5 Z"/></g>
<g><path style="opacity:0.008" fill="#3a3837" d="M 843.5,214.5 C 844.833,215.167 844.833,215.167 843.5,214.5 Z"/></g>
<g><path style="opacity:0.004" fill="#363536" d="M 852.5,214.5 C 853.833,215.167 853.833,215.167 852.5,214.5 Z"/></g>
<g><path style="opacity:0.004" fill="#3a3a3a" d="M 795.5,215.5 C 796.573,216.251 796.74,217.251 796,218.5C 795.517,217.552 795.351,216.552 795.5,215.5 Z"/></g>
<g><path style="opacity:0.004" fill="#373939" d="M 823.5,215.5 C 824.833,216.167 824.833,216.167 823.5,215.5 Z"/></g>
<g><path style="opacity:0.004" fill="#383737" d="M 830.5,215.5 C 831.833,216.167 831.833,216.167 830.5,215.5 Z"/></g>
<g><path style="opacity:0.004" fill="#373636" d="M 856.5,215.5 C 857.833,216.167 857.833,216.167 856.5,215.5 Z"/></g>
<g><path style="opacity:0.208" fill="#3c3b3b" d="M 447.5,158.5 C 448.17,190.569 448.837,222.736 449.5,255C 448.906,255.464 448.239,255.631 447.5,255.5C 447.5,223.167 447.5,190.833 447.5,158.5 Z"/></g>
<g><path style="opacity:0.004" fill="#393b38" d="M 688.5,216.5 C 689.833,217.167 689.833,217.167 688.5,216.5 Z"/></g>
<g><path style="opacity:0.008" fill="#383536" d="M 421.5,217.5 C 422.525,217.897 422.692,218.563 422,219.5C 421.536,218.906 421.369,218.239 421.5,217.5 Z"/></g>
<g><path style="opacity:0.012" fill="#3a3938" d="M 618.5,219.5 C 619.622,221.288 619.789,223.288 619,225.5C 618.505,223.527 618.338,221.527 618.5,219.5 Z"/></g>
<g><path style="opacity:0.993" fill="#141414" d="M 217.5,219.5 C 196.67,232.137 175.67,244.637 154.5,257C 149.254,258.506 143.921,258.839 138.5,258C 117.104,245.665 96.1039,233.498 75.5,221.5C 74.9246,223.353 74.5912,225.186 74.5,227C 75.1271,229.135 75.6271,231.302 76,233.5C 79.6515,235.733 83.1515,238.066 86.5,240.5C 74.6507,239.406 70.1507,232.74 73,220.5C 73.6891,219.643 74.5224,218.977 75.5,218.5C 96.872,231.519 118.539,244.019 140.5,256C 144.167,256.667 147.833,256.667 151.5,256C 173.336,242.914 195.336,230.081 217.5,217.5C 218.463,217.97 218.463,218.637 217.5,219.5 Z"/></g>
<g><path style="opacity:1" fill="#141414" d="M 218.5,190.5 C 218.5,186.167 218.5,181.833 218.5,177.5C 209.052,181.723 200.052,186.723 191.5,192.5C 178.726,199.39 166.059,206.556 153.5,214C 147.386,216.099 141.386,215.766 135.5,213C 126.94,207.889 118.274,203.056 109.5,198.5C 98.9978,191.412 87.9978,185.079 76.5,179.5C 75.6977,178.115 75.0311,178.282 74.5,180C 75.5973,182.805 75.5973,185.638 74.5,188.5C 74.7865,191.267 75.4532,193.934 76.5,196.5C 98.356,209.37 120.856,222.037 144,234.5C 148.28,234.335 152.113,232.669 155.5,229.5C 167.164,223.67 178.498,217.337 189.5,210.5C 194.5,208.336 199.167,205.669 203.5,202.5C 206.5,201.167 209.5,199.833 212.5,198.5C 213.239,198.369 213.906,198.536 214.5,199C 192.996,211.586 171.329,223.92 149.5,236C 146.833,236.667 144.167,236.667 141.5,236C 119.5,223.667 97.5,211.333 75.5,199C 74.283,197.352 73.4497,195.519 73,193.5C 72.2124,187.78 72.3791,182.114 73.5,176.5C 74.365,175.417 75.365,175.251 76.5,176C 97.2626,188.432 118.263,200.432 139.5,212C 143.833,212.667 148.167,212.667 152.5,212C 174.63,199.767 196.63,187.267 218.5,174.5C 219.086,174.709 219.586,175.043 220,175.5C 220.667,181.5 220.667,187.5 220,193.5C 219.581,194.672 218.915,195.672 218,196.5C 218.135,194.575 218.302,192.575 218.5,190.5 Z"/></g>
<g><path style="opacity:0.004" fill="#393837" d="M 421.5,222.5 C 422.833,223.167 422.833,223.167 421.5,222.5 Z"/></g>
<g><path style="opacity:0.004" fill="#383a3a" d="M 449.5,221.5 C 450.525,221.897 450.692,222.563 450,223.5C 449.536,222.906 449.369,222.239 449.5,221.5 Z"/></g>
<g><path style="opacity:0.998" fill="#242425" d="M 425.5,160.5 C 432.5,160.5 439.5,160.5 446.5,160.5C 446.5,191.5 446.5,222.5 446.5,253.5C 439.5,253.5 432.5,253.5 425.5,253.5C 425.5,222.5 425.5,191.5 425.5,160.5 Z"/></g>
<g><path style="opacity:0.008" fill="#3a3e3a" d="M 714.5,224.5 C 715.833,225.167 715.833,225.167 714.5,224.5 Z"/></g>
<g><path style="opacity:0.004" fill="#3c3b3a" d="M 719.5,224.5 C 720.833,225.167 720.833,225.167 719.5,224.5 Z"/></g>
<g><path style="opacity:0.004" fill="#373837" d="M 421.5,226.5 C 422.833,227.167 422.833,227.167 421.5,226.5 Z"/></g>
<g><path style="opacity:0.008" fill="#3b3a3a" d="M 618.5,226.5 C 619.634,228.966 619.801,231.633 619,234.5C 618.503,231.854 618.336,229.187 618.5,226.5 Z"/></g>
<g><path style="opacity:0.012" fill="#393d39" d="M 500.5,228.5 C 501.833,229.167 501.833,229.167 500.5,228.5 Z"/></g>
<g><path style="opacity:0.004" fill="#383937" d="M 449.5,229.5 C 450.833,230.167 450.833,230.167 449.5,229.5 Z"/></g>
<g><path style="opacity:0.004" fill="#383837" d="M 421.5,230.5 C 422.833,231.167 422.833,231.167 421.5,230.5 Z"/></g>
<g><path style="opacity:0.004" fill="#393939" d="M 723.5,231.5 C 722.833,232.167 722.833,232.167 723.5,231.5 Z"/></g>
<g><path style="opacity:0.004" fill="#393837" d="M 862.5,231.5 C 863.833,232.167 863.833,232.167 862.5,231.5 Z"/></g>
<g><path style="opacity:0.958" fill="#141414" d="M 490.5,255.5 C 490.842,254.662 491.508,254.328 492.5,254.5C 501.888,255.877 511.221,255.544 520.5,253.5C 520.666,247.491 520.499,241.491 520,235.5C 517.254,236.143 514.421,236.476 511.5,236.5C 508.309,236.622 505.309,236.122 502.5,235C 505.975,235.588 509.308,235.421 512.5,234.5C 515.47,233.835 518.47,233.169 521.5,232.5C 522.497,240.138 522.831,247.804 522.5,255.5C 511.779,258.007 501.112,258.007 490.5,255.5 Z"/></g>
<g><path style="opacity:0.008" fill="#3b3a3b" d="M 618.5,235.5 C 619.622,237.288 619.789,239.288 619,241.5C 618.505,239.527 618.338,237.527 618.5,235.5 Z"/></g>
<g><path style="opacity:0.004" fill="#383938" d="M 835.5,236.5 C 836.833,237.167 836.833,237.167 835.5,236.5 Z"/></g>
<g><path style="opacity:0.712" fill="#0e0e0e" d="M 644.5,121.5 C 645.169,165.902 645.836,210.402 646.5,255C 646.272,255.399 645.938,255.565 645.5,255.5C 644.5,255.5 643.5,255.5 642.5,255.5C 635.833,254.833 629.167,254.167 622.5,253.5C 629.5,253.5 636.5,253.5 643.5,253.5C 643.5,252.5 643.5,251.5 643.5,250.5C 644.499,207.67 644.832,164.67 644.5,121.5 Z"/></g>
<g><path style="opacity:0.008" fill="#3c3c3a" d="M 724.5,237.5 C 725.833,238.167 725.833,238.167 724.5,237.5 Z"/></g>
<g><path style="opacity:0.008" fill="#383b39" d="M 839.5,237.5 C 840.833,238.167 840.833,238.167 839.5,237.5 Z"/></g>
<g><path style="opacity:0.004" fill="#424344" d="M 43.5,242.5 C 44.8333,243.167 44.8333,243.167 43.5,242.5 Z"/></g>
<g><path style="opacity:0.009" fill="#3c3b3d" d="M 618.5,242.5 C 619.573,243.251 619.74,244.251 619,245.5C 618.517,244.552 618.351,243.552 618.5,242.5 Z"/></g>
<g><path style="opacity:0.004" fill="#3d3d3e" d="M 803.5,242.5 C 804.833,243.167 804.833,243.167 803.5,242.5 Z"/></g>
<g><path style="opacity:0.008" fill="#3c3a3c" d="M 476.5,244.5 C 475.833,245.167 475.833,245.167 476.5,244.5 Z"/></g>
<g><path style="opacity:0.004" fill="#3e3e3d" d="M 243.5,246.5 C 244.833,247.167 244.833,247.167 243.5,246.5 Z"/></g>
<g><path style="opacity:0.008" fill="#3b393c" d="M 477.5,246.5 C 476.833,247.167 476.833,247.167 477.5,246.5 Z"/></g>
<g><path style="opacity:0.007" fill="#3c3b3c" d="M 618.5,246.5 C 619.573,247.251 619.74,248.251 619,249.5C 618.517,248.552 618.351,247.552 618.5,246.5 Z"/></g>
<g><path style="opacity:0.004" fill="#3a3d3c" d="M 474.5,248.5 C 475.833,249.167 475.833,249.167 474.5,248.5 Z"/></g>
<g><path style="opacity:0.008" fill="#3f3d3f" d="M 532.5,249.5 C 533.833,250.167 533.833,250.167 532.5,249.5 Z"/></g>
<g><path style="opacity:0.01" fill="#3b3a3a" d="M 449.5,250.5 C 450.525,250.897 450.692,251.563 450,252.5C 449.536,251.906 449.369,251.239 449.5,250.5 Z"/></g>
<g><path style="opacity:0.008" fill="#3e3e3e" d="M 618.5,250.5 C 619.833,251.167 619.833,251.167 618.5,250.5 Z"/></g>
<g><path style="opacity:0.008" fill="#3c3c3a" d="M 646.5,250.5 C 647.833,251.167 647.833,251.167 646.5,250.5 Z"/></g>
<g><path style="opacity:0.995" fill="#161616" d="M 89.5,242.5 C 103.364,249.794 117.364,257.794 131.5,266.5C 131.217,267.289 130.717,267.956 130,268.5C 115.916,259.874 101.75,251.374 87.5,243C 88.0944,242.536 88.7611,242.369 89.5,242.5 Z"/></g>
<g><path style="opacity:0.004" fill="#3b3e3c" d="M 421.5,251.5 C 422.833,252.167 422.833,252.167 421.5,251.5 Z"/></g>
<g><path style="opacity:0.996" fill="#1f1f1f" d="M 474.5,177.5 C 475.332,196.996 475.832,216.662 476,236.5C 476.5,216.836 476.667,197.169 476.5,177.5C 477.332,198.329 477.832,219.329 478,240.5C 480.124,248.126 484.957,252.793 492.5,254.5C 491.508,254.328 490.842,254.662 490.5,255.5C 484.899,254.21 480.566,251.21 477.5,246.5C 477.672,245.508 477.338,244.842 476.5,244.5C 476.162,242.146 475.662,239.813 475,237.5C 474.5,217.503 474.333,197.503 474.5,177.5 Z"/></g>
<g><path style="opacity:0.004" fill="#3e3f3e" d="M 561.5,251.5 C 562.833,252.167 562.833,252.167 561.5,251.5 Z"/></g>
<g><path style="opacity:0.012" fill="#40403f" d="M 52.5,252.5 C 51.8333,253.167 51.8333,253.167 52.5,252.5 Z"/></g>
<g><path style="opacity:0.004" fill="#3f3e3d" d="M 647.5,252.5 C 648.833,253.167 648.833,253.167 647.5,252.5 Z"/></g>
<g><path style="opacity:0.99" fill="#121212" d="M 309.5,123.5 C 309.5,166.833 309.5,210.167 309.5,253.5C 330.5,253.5 351.5,253.5 372.5,253.5C 378.34,252.721 384.007,251.221 389.5,249C 400.142,244.218 406.308,236.051 408,224.5C 411.044,206.082 403.877,193.582 386.5,187C 387.094,186.536 387.761,186.369 388.5,186.5C 398.536,189.01 405.536,195.01 409.5,204.5C 415.252,231.888 404.585,248.721 377.5,255C 372.78,255.221 368.113,255.721 363.5,256.5C 362.817,256.137 362.15,255.804 361.5,255.5C 357.167,255.5 352.833,255.5 348.5,255.5C 348.167,255.5 347.833,255.5 347.5,255.5C 338.833,255.5 330.167,255.5 321.5,255.5C 320.417,255.539 319.417,255.873 318.5,256.5C 314.555,255.732 310.555,255.232 306.5,255C 307.252,254.329 307.586,253.496 307.5,252.5C 308.167,209.5 308.833,166.5 309.5,123.5 Z M 332.5,196.5 C 332.333,209.171 332.5,221.838 333,234.5C 345.425,233.677 357.925,233.177 370.5,233C 375.388,232.112 379.221,229.612 382,225.5C 387.116,208.947 381.116,199.28 364,196.5C 353.709,196.547 343.209,196.547 332.5,196.5 Z"/></g>
<g><path style="opacity:0.992" fill="#171717" d="M 330.5,194.5 C 342.505,194.333 354.505,194.5 366.5,195C 384.113,198.784 389.946,209.284 384,226.5C 381.188,230.662 377.355,233.495 372.5,235C 359.209,236.548 345.875,236.881 332.5,236C 332,235.5 331.5,235 331,234.5C 330.5,221.171 330.333,207.837 330.5,194.5 Z M 332.5,196.5 C 332.333,209.171 332.5,221.838 333,234.5C 345.425,233.677 357.925,233.177 370.5,233C 375.388,232.112 379.221,229.612 382,225.5C 387.116,208.947 381.116,199.28 364,196.5C 353.709,196.547 343.209,196.547 332.5,196.5 Z"/></g>
<g><path style="opacity:0.008" fill="#40403f" d="M 619.5,254.5 C 618.833,253.167 618.833,253.167 619.5,254.5 Z"/></g>
<g><path style="opacity:0.006" fill="#403f3f" d="M 484.5,254.5 C 485.525,254.897 485.692,255.563 485,256.5C 484.536,255.906 484.369,255.239 484.5,254.5 Z"/></g>
<g><path style="opacity:0.994" fill="#141414" d="M 49.5,241.5 C 50.589,245.51 52.589,249.01 55.5,252C 83.3686,269.768 111.702,286.768 140.5,303C 144.167,303.667 147.833,303.667 151.5,303C 167.167,294.169 182.5,284.836 197.5,275C 199.244,273.546 200.911,273.379 202.5,274.5C 186.464,284.514 170.464,294.514 154.5,304.5C 149.204,305.509 143.871,305.676 138.5,305C 125.477,297.49 112.477,289.99 99.5,282.5C 97.8525,280.674 95.8525,279.34 93.5,278.5C 80.0387,269.597 66.372,260.931 52.5,252.5C 50.3084,249.45 48.6417,246.117 47.5,242.5C 48.1667,242.167 48.8333,241.833 49.5,241.5 Z"/></g>
<g><path style="opacity:0.031" fill="#4a4a4a" d="M 321.5,255.5 C 330.167,255.5 338.833,255.5 347.5,255.5C 346.828,256.267 345.995,256.934 345,257.5C 337.209,257.213 329.375,256.546 321.5,255.5 Z"/></g>
<g><path style="opacity:0.01" fill="#4b4a4a" d="M 348.5,255.5 C 352.833,255.5 357.167,255.5 361.5,255.5C 358.772,256.205 355.939,256.872 353,257.5C 351.378,256.901 349.878,256.234 348.5,255.5 Z"/></g>
<g><path style="opacity:0.004" fill="#4a4949" d="M 426.5,255.5 C 432.5,255.5 438.5,255.5 444.5,255.5C 444.631,256.239 444.464,256.906 444,257.5C 438.067,256.852 432.234,256.186 426.5,255.5 Z"/></g>
<g><path style="opacity:0.008" fill="#4d4c4c" d="M 623.5,255.5 C 626.5,255.5 629.5,255.5 632.5,255.5C 630.107,256.21 627.607,256.877 625,257.5C 624.283,256.956 623.783,256.289 623.5,255.5 Z"/></g>
<g><path style="opacity:0.004" fill="#4b4a49" d="M 638.5,255.5 C 639.167,255.5 639.833,255.5 640.5,255.5C 640.214,257.933 639.548,257.933 638.5,255.5 Z"/></g>
<g><path style="opacity:0.024" fill="#4a4949" d="M 677.5,255.5 C 680.5,255.5 683.5,255.5 686.5,255.5C 686.217,256.289 685.717,256.956 685,257.5C 682.393,256.877 679.893,256.21 677.5,255.5 Z"/></g>
<g><path style="opacity:0.016" fill="#4d4c4c" d="M 742.5,255.5 C 747.167,255.5 751.833,255.5 756.5,255.5C 756.631,256.239 756.464,256.906 756,257.5C 751.399,256.858 746.899,256.191 742.5,255.5 Z"/></g>
<g><path style="opacity:0.004" fill="#413f3e" d="M 871.5,255.5 C 872.833,256.167 872.833,256.167 871.5,255.5 Z"/></g>
<g><path style="opacity:0.004" fill="#3e3e3b" d="M 371.5,256.5 C 372.833,257.167 372.833,257.167 371.5,256.5 Z"/></g>
<g><path style="opacity:0.004" fill="#403f40" d="M 487.5,257.5 C 487.897,256.475 488.563,256.308 489.5,257C 488.906,257.464 488.239,257.631 487.5,257.5 Z"/></g>
<g><path style="opacity:0.004" fill="#3d3c3a" d="M 521.5,256.5 C 522.833,257.167 522.833,257.167 521.5,256.5 Z"/></g>
<g><path style="opacity:0.008" fill="#3d3e3c" d="M 554.5,256.5 C 555.833,257.167 555.833,257.167 554.5,256.5 Z"/></g>
<g><path style="opacity:0.008" fill="#3e403e" d="M 618.5,256.5 C 619.833,257.167 619.833,257.167 618.5,256.5 Z"/></g>
<g><path style="opacity:0.008" fill="#404041" d="M 642.5,255.5 C 643.5,255.5 644.5,255.5 645.5,255.5C 644.74,257.985 643.74,257.985 642.5,255.5 Z"/></g>
<g><path style="opacity:0.004" fill="#40433f" d="M 816.5,256.5 C 817.833,257.167 817.833,257.167 816.5,256.5 Z"/></g>
<g><path style="opacity:0.004" fill="#3f403f" d="M 836.5,261.5 C 837.833,262.167 837.833,262.167 836.5,261.5 Z"/></g>
<g><path style="opacity:0.997" fill="#141414" d="M 241.5,243.5 C 242.167,243.5 242.833,243.5 243.5,243.5C 242.647,247.37 240.647,250.536 237.5,253C 226.948,259.725 216.281,266.225 205.5,272.5C 204.761,272.631 204.094,272.464 203.5,272C 214.134,265.346 224.8,258.679 235.5,252C 238.371,249.751 240.371,246.918 241.5,243.5 Z"/></g>
<g><path style="opacity:1" fill="#131313" d="M 134.5,268.5 C 139.278,272.089 144.611,273.255 150.5,272C 158.064,267.726 165.398,263.226 172.5,258.5C 182.003,253.919 191.003,248.586 199.5,242.5C 204.258,240.258 208.925,237.758 213.5,235C 217.472,230.701 219.139,225.535 218.5,219.5C 219.117,219.389 219.617,219.056 220,218.5C 220.879,223.838 220.379,229.004 218.5,234C 196.332,247.585 173.999,260.918 151.5,274C 147.833,274.667 144.167,274.667 140.5,274C 137.5,272.333 134.5,270.667 131.5,269C 132.448,268.517 133.448,268.351 134.5,268.5 Z"/></g>
<g><path style="opacity:0.004" fill="#3f3f3d" d="M 86.5,275.5 C 87.8333,276.167 87.8333,276.167 86.5,275.5 Z"/></g>
<g><path style="opacity:0.012" fill="#3b383b" d="M 93.5,278.5 C 92.8333,279.167 92.8333,279.167 93.5,278.5 Z"/></g>
<g><path style="opacity:0.004" fill="#3c3c3c" d="M 99.5,282.5 C 98.8333,283.167 98.8333,283.167 99.5,282.5 Z"/></g>
<g><path style="opacity:0.004" fill="#3e4140" d="M 176.5,291.5 C 177.833,292.167 177.833,292.167 176.5,291.5 Z"/></g>
<g><path style="opacity:0.004" fill="#3f4041" d="M 114.5,292.5 C 115.833,293.167 115.833,293.167 114.5,292.5 Z"/></g>
<g><path style="opacity:0.004" fill="#40413e" d="M 154.5,304.5 C 155.833,305.167 155.833,305.167 154.5,304.5 Z"/></g>
</svg>
